<svg width="139" height="32" viewBox="0 0 139 32" fill="none" xmlns="http://www.w3.org/2000/svg">
<g clip-path="url(#clip0_406_2)">
<path d="M11.5321 2.30284C5.16338 2.30284 0 7.39162 0 13.6743C0 19.957 5.16338 25.0458 11.5321 25.0458C14.7165 25.0458 17.5255 23.7996 19.5168 21.7852L17.0371 19.3402C15.603 20.7554 13.6862 21.6961 11.5321 21.6961C7.59613 21.6961 4.41174 18.5582 4.41174 14.6865C4.41174 10.8148 7.59613 7.67688 11.5321 7.67688C13.6862 7.67688 15.603 8.61763 17.0371 10.0328L19.5168 7.58782C17.5255 5.5734 14.7165 4.32724 11.5321 2.30284Z" fill="url(#paint0_linear_406_2)"/>
<path d="M28.0934 0.963409C21.7247 0.963409 16.5613 6.05219 16.5613 12.3349C16.5613 18.6176 21.7247 23.7063 28.0934 23.7063C34.4621 23.7063 39.6255 18.6176 39.6255 12.3349C39.6255 6.05219 34.4621 0.963409 28.0934 0.963409ZM28.0934 20.3567C23.6393 20.3567 20.1444 16.9079 20.1444 12.508C20.1444 8.10814 23.6393 4.65936 28.0934 4.65936C32.5475 4.65936 36.0424 8.10814 36.0424 12.508C36.0424 16.9079 32.5475 20.3567 28.0934 20.3567Z" fill="url(#paint1_linear_406_2)"/>
<path d="M48.1633 1.1365C45.3542 1.1365 42.5452 2.38266 40.5539 4.39708L43.0336 6.84206C44.4678 5.42684 46.207 4.65063 48.1633 4.65063C52.1738 4.65063 55.0573 7.58163 55.0573 11.9625V23.5332H58.6351V11.9625C58.6351 5.42684 54.0435 1.1365 48.1633 1.1365Z" fill="url(#paint2_linear_406_2)"/>
<path d="M78.6917 12.421C78.6917 18.7037 73.5283 23.7925 67.1596 23.7925C60.7909 23.7925 55.6275 18.7037 55.6275 12.421C55.6275 6.1383 60.7909 1.04952 67.1596 1.04952C73.5283 1.04952 78.6917 6.1383 78.6917 12.421ZM67.0851 20.4428C71.5392 20.4428 75.0341 17.079 75.0341 12.589C75.0341 8.09901 71.5392 4.73516 67.0851 4.73516C62.631 4.73516 59.1361 8.09901 59.1361 12.589C59.1361 17.079 62.631 20.4428 67.0851 20.4428Z" fill="url(#paint3_linear_406_2)"/>
<path d="M96.0645 1.1365C90.1882 1.1365 85.5967 5.42684 85.5967 11.9625V23.5332H89.1745V11.9625C89.1745 7.58163 92.058 4.65063 96.0685 4.65063C100.079 4.65063 102.963 7.58163 102.963 11.9625V23.5332H106.54V11.9625C106.54 5.42684 101.949 1.1365 96.0645 1.1365Z" fill="url(#paint4_linear_406_2)"/>
<path d="M112.58 2.14652C106.211 2.14652 110.156 6.84206 109.978 8.44453L129.587 13.9143C129.587 7.76299 122.95 2.14652 112.58 2.14652ZM112.491 4.9816C117.477 4.9816 120.274 7.67688 121.708 9.53064L110.82 12.421C111.087 6.75594 112.491 4.9816 112.491 4.9816Z" fill="url(#paint5_linear_406_2)"/>
<path d="M121.794 23.3601L111.758 17.3465L118.89 14.3853L125.438 23.3601H121.794Z" fill="url(#paint6_linear_406_2)"/>
<path d="M138.312 2.30284C131.943 2.30284 126.78 7.39162 126.78 13.6743C126.78 19.957 131.943 25.0458 138.312 25.0458C141.496 25.0458 144.305 23.7996 146.297 21.7852L143.817 19.3402C142.383 20.7554 140.466 21.6961 138.312 21.6961C134.376 21.6961 131.192 18.5582 131.192 14.6865C131.192 10.8148 134.376 7.67688 138.312 7.67688C140.466 7.67688 142.383 8.61763 143.817 10.0328L146.297 7.58782C144.305 5.5734 141.496 4.32724 138.312 2.30284Z" fill="url(#paint7_linear_406_2)"/>
</g>
<defs>
<linearGradient id="paint0_linear_406_2" x1="9.75842" y1="2.30284" x2="9.75842" y2="25.0458" gradientUnits="userSpaceOnUse">
<stop stop-color="#39FF14"/>
<stop offset="1" stop-color="#00F0FF"/>
</linearGradient>
<linearGradient id="paint1_linear_406_2" x1="28.0934" y1="0.963409" x2="28.0934" y2="23.7063" gradientUnits="userSpaceOnUse">
<stop stop-color="#39FF14"/>
<stop offset="1" stop-color="#00F0FF"/>
</linearGradient>
<linearGradient id="paint2_linear_406_2" x1="50.8407" y1="1.1365" x2="50.8407" y2="23.5332" gradientUnits="userSpaceOnUse">
<stop stop-color="#39FF14"/>
<stop offset="1" stop-color="#00F0FF"/>
</linearGradient>
<linearGradient id="paint3_linear_406_2" x1="67.1596" y1="1.04952" x2="67.1596" y2="23.7925" gradientUnits="userSpaceOnUse">
<stop stop-color="#39FF14"/>
<stop offset="1" stop-color="#00F0FF"/>
</linearGradient>
<linearGradient id="paint4_linear_406_2" x1="96.0685" y1="1.1365" x2="96.0685" y2="23.5332" gradientUnits="userSpaceOnUse">
<stop stop-color="#39FF14"/>
<stop offset="1" stop-color="#00F0FF"/>
</linearGradient>
<linearGradient id="paint5_linear_406_2" x1="117.842" y1="2.14652" x2="117.842" y2="13.9143" gradientUnits="userSpaceOnUse">
<stop stop-color="#39FF14"/>
<stop offset="1" stop-color="#00F0FF"/>
</linearGradient>
<linearGradient id="paint6_linear_406_2" x1="118.597" y1="14.3853" x2="118.597" y2="23.3601" gradientUnits="userSpaceOnUse">
<stop stop-color="#39FF14"/>
<stop offset="1" stop-color="#00F0FF"/>
</linearGradient>
<linearGradient id="paint7_linear_406_2" x1="136.538" y1="2.30284" x2="136.538" y2="25.0458" gradientUnits="userSpaceOnUse">
<stop stop-color="#39FF14"/>
<stop offset="1" stop-color="#00F0FF"/>
</linearGradient>
<clipPath id="clip0_406_2">
<rect width="138.892" height="31.0366" fill="white"/>
</clipPath>
</defs>
</svg>
